<?xml version="1.0" encoding="UTF-8" standalone="no"?>
<!DOCTYPE svg PUBLIC "-//W3C//DTD SVG 1.1//EN"
 "http://www.w3.org/Graphics/SVG/1.1/DTD/svg11.dtd">
<!-- Generated by graphviz version 9.0.0 (0)
 -->
<!-- Title: G Pages: 1 -->
<svg width="606pt" height="1115pt"
 viewBox="0.00 0.00 605.68 1115.00" xmlns="http://www.w3.org/2000/svg" xmlns:xlink="http://www.w3.org/1999/xlink">
<g id="graph0" class="graph" transform="scale(1 1) rotate(0) translate(4 1111)">
<title>G</title>
<polygon fill="white" stroke="none" points="-4,4 -4,-1111 601.68,-1111 601.68,4 -4,4"/>
<!-- n1_0 -->
<g id="node1" class="node">
<title>n1_0</title>
<ellipse fill="none" stroke="black" cx="211.84" cy="-1089" rx="34.9" ry="18"/>
<text text-anchor="middle" x="211.84" y="-1084.33" font-family="Times,serif" font-size="14.00">n1_0</text>
</g>
<!-- n5_13 -->
<g id="node2" class="node">
<title>n5_13</title>
<ellipse fill="none" stroke="black" cx="211.84" cy="-999.75" rx="41.21" ry="18"/>
<text text-anchor="middle" x="211.84" y="-995.08" font-family="Times,serif" font-size="14.00">n5_13</text>
</g>
<!-- n1_0&#45;&gt;n5_13 -->
<g id="edge1" class="edge">
<title>n1_0&#45;&gt;n5_13</title>
<path fill="none" stroke="black" d="M211.84,-1070.76C211.84,-1058.93 211.84,-1042.95 211.84,-1029.25"/>
<polygon fill="black" stroke="black" points="215.34,-1029.47 211.84,-1019.47 208.34,-1029.47 215.34,-1029.47"/>
<text text-anchor="middle" x="220.84" y="-1039.7" font-family="Times,serif" font-size="14.00">50</text>
</g>
<!-- n43_11 -->
<g id="node8" class="node">
<title>n43_11</title>
<ellipse fill="none" stroke="black" cx="158.84" cy="-910.5" rx="47.53" ry="18"/>
<text text-anchor="middle" x="158.84" y="-905.83" font-family="Times,serif" font-size="14.00">n43_11</text>
</g>
<!-- n5_13&#45;&gt;n43_11 -->
<g id="edge8" class="edge">
<title>n5_13&#45;&gt;n43_11</title>
<path fill="none" stroke="black" d="M201.62,-981.93C194.07,-969.49 183.64,-952.32 174.96,-938.04"/>
<polygon fill="black" stroke="black" points="178,-936.29 169.81,-929.56 172.01,-939.93 178,-936.29"/>
<text text-anchor="middle" x="203.34" y="-950.45" font-family="Times,serif" font-size="14.00">301</text>
</g>
<!-- n5_43 -->
<g id="node11" class="node">
<title>n5_43</title>
<ellipse fill="none" stroke="black" cx="265.84" cy="-910.5" rx="41.21" ry="18"/>
<text text-anchor="middle" x="265.84" y="-905.83" font-family="Times,serif" font-size="14.00">n5_43</text>
</g>
<!-- n5_13&#45;&gt;n5_43 -->
<g id="edge9" class="edge">
<title>n5_13&#45;&gt;n5_43</title>
<path fill="none" stroke="black" d="M222.25,-981.93C229.94,-969.49 240.57,-952.32 249.41,-938.04"/>
<polygon fill="black" stroke="black" points="252.38,-939.9 254.66,-929.56 246.42,-936.22 252.38,-939.9"/>
<text text-anchor="middle" x="256.34" y="-950.45" font-family="Times,serif" font-size="14.00">183</text>
</g>
<!-- n103_5 -->
<g id="node3" class="node">
<title>n103_5</title>
<ellipse fill="none" stroke="black" cx="72.84" cy="-642.75" rx="47.53" ry="18"/>
<text text-anchor="middle" x="72.84" y="-638.08" font-family="Times,serif" font-size="14.00">n103_5</text>
</g>
<!-- n127_33 -->
<g id="node4" class="node">
<title>n127_33</title>
<ellipse fill="none" stroke="black" cx="53.84" cy="-464.25" rx="53.84" ry="18"/>
<text text-anchor="middle" x="53.84" y="-459.57" font-family="Times,serif" font-size="14.00">n127_33</text>
</g>
<!-- n103_5&#45;&gt;n127_33 -->
<g id="edge2" class="edge">
<title>n103_5&#45;&gt;n127_33</title>
<path fill="none" stroke="black" d="M63.91,-624.7C57.17,-610.8 48.48,-590.45 44.84,-571.5 39.83,-545.39 43.27,-515.14 47.26,-493.61"/>
<polygon fill="black" stroke="black" points="50.69,-494.31 49.25,-483.81 43.83,-492.92 50.69,-494.31"/>
<text text-anchor="middle" x="58.34" y="-548.83" font-family="Times,serif" font-size="14.00">465</text>
</g>
<!-- n103_35 -->
<g id="node5" class="node">
<title>n103_35</title>
<ellipse fill="none" stroke="black" cx="134.84" cy="-553.5" rx="53.84" ry="18"/>
<text text-anchor="middle" x="134.84" y="-548.83" font-family="Times,serif" font-size="14.00">n103_35</text>
</g>
<!-- n103_5&#45;&gt;n103_35 -->
<g id="edge3" class="edge">
<title>n103_5&#45;&gt;n103_35</title>
<path fill="none" stroke="black" d="M84.79,-624.93C93.71,-612.37 106.07,-594.99 116.27,-580.63"/>
<polygon fill="black" stroke="black" points="119.1,-582.68 122.04,-572.5 113.4,-578.63 119.1,-582.68"/>
<text text-anchor="middle" x="123.34" y="-593.45" font-family="Times,serif" font-size="14.00">151</text>
</g>
<!-- n127_67 -->
<g id="node14" class="node">
<title>n127_67</title>
<ellipse fill="none" stroke="black" cx="66.84" cy="-375" rx="53.84" ry="18"/>
<text text-anchor="middle" x="66.84" y="-370.32" font-family="Times,serif" font-size="14.00">n127_67</text>
</g>
<!-- n127_33&#45;&gt;n127_67 -->
<g id="edge14" class="edge">
<title>n127_33&#45;&gt;n127_67</title>
<path fill="none" stroke="black" d="M56.41,-446.01C58.17,-434.18 60.55,-418.2 62.59,-404.5"/>
<polygon fill="black" stroke="black" points="66.04,-405.11 64.05,-394.7 59.12,-404.07 66.04,-405.11"/>
<text text-anchor="middle" x="75.34" y="-414.95" font-family="Times,serif" font-size="14.00">303</text>
</g>
<!-- n103_35&#45;&gt;n127_33 -->
<g id="edge15" class="edge">
<title>n103_35&#45;&gt;n127_33</title>
<path fill="none" stroke="black" d="M119.6,-536.09C107.57,-523.13 90.59,-504.84 76.9,-490.09"/>
<polygon fill="black" stroke="black" points="79.68,-487.94 70.31,-482.99 74.55,-492.7 79.68,-487.94"/>
<text text-anchor="middle" x="115.34" y="-504.2" font-family="Times,serif" font-size="14.00">139</text>
</g>
<!-- n109_57 -->
<g id="node15" class="node">
<title>n109_57</title>
<ellipse fill="none" stroke="black" cx="179.84" cy="-464.25" rx="53.84" ry="18"/>
<text text-anchor="middle" x="179.84" y="-459.57" font-family="Times,serif" font-size="14.00">n109_57</text>
</g>
<!-- n103_35&#45;&gt;n109_57 -->
<g id="edge16" class="edge">
<title>n103_35&#45;&gt;n109_57</title>
<path fill="none" stroke="black" d="M140.73,-535.13C144.52,-524.75 149.84,-511.45 155.84,-500.25 157.37,-497.39 159.09,-494.47 160.88,-491.61"/>
<polygon fill="black" stroke="black" points="163.66,-493.76 166.26,-483.49 157.82,-489.89 163.66,-493.76"/>
<text text-anchor="middle" x="169.34" y="-504.2" font-family="Times,serif" font-size="14.00">109</text>
</g>
<!-- n85_7 -->
<g id="node6" class="node">
<title>n85_7</title>
<ellipse fill="none" stroke="black" cx="98.84" cy="-732" rx="41.21" ry="18"/>
<text text-anchor="middle" x="98.84" y="-727.33" font-family="Times,serif" font-size="14.00">n85_7</text>
</g>
<!-- n85_7&#45;&gt;n103_5 -->
<g id="edge4" class="edge">
<title>n85_7&#45;&gt;n103_5</title>
<path fill="none" stroke="black" d="M93.7,-713.76C90.14,-701.81 85.32,-685.63 81.21,-671.83"/>
<polygon fill="black" stroke="black" points="84.61,-670.99 78.4,-662.4 77.9,-672.99 84.61,-670.99"/>
<text text-anchor="middle" x="97.84" y="-682.7" font-family="Times,serif" font-size="14.00">81</text>
</g>
<!-- n85_33 -->
<g id="node7" class="node">
<title>n85_33</title>
<ellipse fill="none" stroke="black" cx="185.84" cy="-642.75" rx="47.53" ry="18"/>
<text text-anchor="middle" x="185.84" y="-638.08" font-family="Times,serif" font-size="14.00">n85_33</text>
</g>
<!-- n85_7&#45;&gt;n85_33 -->
<g id="edge5" class="edge">
<title>n85_7&#45;&gt;n85_33</title>
<path fill="none" stroke="black" d="M114.8,-715C127.96,-701.8 146.83,-682.87 161.82,-667.83"/>
<polygon fill="black" stroke="black" points="164.04,-670.57 168.62,-661.02 159.08,-665.63 164.04,-670.57"/>
<text text-anchor="middle" x="163.34" y="-682.7" font-family="Times,serif" font-size="14.00">167</text>
</g>
<!-- n85_33&#45;&gt;n103_35 -->
<g id="edge12" class="edge">
<title>n85_33&#45;&gt;n103_35</title>
<path fill="none" stroke="black" d="M173.07,-625.03C168.97,-619.35 164.53,-612.89 160.84,-606.75 156.12,-598.9 151.49,-590.08 147.48,-581.95"/>
<polygon fill="black" stroke="black" points="150.75,-580.67 143.26,-573.17 144.44,-583.7 150.75,-580.67"/>
<text text-anchor="middle" x="174.34" y="-593.45" font-family="Times,serif" font-size="14.00">109</text>
</g>
<!-- n79_53 -->
<g id="node13" class="node">
<title>n79_53</title>
<ellipse fill="none" stroke="black" cx="253.84" cy="-553.5" rx="47.53" ry="18"/>
<text text-anchor="middle" x="253.84" y="-548.83" font-family="Times,serif" font-size="14.00">n79_53</text>
</g>
<!-- n85_33&#45;&gt;n79_53 -->
<g id="edge13" class="edge">
<title>n85_33&#45;&gt;n79_53</title>
<path fill="none" stroke="black" d="M198.63,-625.34C208.54,-612.62 222.45,-594.77 233.83,-580.17"/>
<polygon fill="black" stroke="black" points="236.56,-582.37 239.94,-572.33 231.04,-578.06 236.56,-582.37"/>
<text text-anchor="middle" x="239.34" y="-593.45" font-family="Times,serif" font-size="14.00">119</text>
</g>
<!-- n53_15 -->
<g id="node9" class="node">
<title>n53_15</title>
<ellipse fill="none" stroke="black" cx="117.84" cy="-821.25" rx="47.53" ry="18"/>
<text text-anchor="middle" x="117.84" y="-816.58" font-family="Times,serif" font-size="14.00">n53_15</text>
</g>
<!-- n43_11&#45;&gt;n53_15 -->
<g id="edge6" class="edge">
<title>n43_11&#45;&gt;n53_15</title>
<path fill="none" stroke="black" d="M150.93,-892.68C145.19,-880.44 137.28,-863.62 130.64,-849.48"/>
<polygon fill="black" stroke="black" points="133.92,-848.25 126.5,-840.69 127.59,-851.23 133.92,-848.25"/>
<text text-anchor="middle" x="155.34" y="-861.2" font-family="Times,serif" font-size="14.00">119</text>
</g>
<!-- n31_39 -->
<g id="node10" class="node">
<title>n31_39</title>
<ellipse fill="none" stroke="black" cx="230.84" cy="-821.25" rx="47.53" ry="18"/>
<text text-anchor="middle" x="230.84" y="-816.58" font-family="Times,serif" font-size="14.00">n31_39</text>
</g>
<!-- n43_11&#45;&gt;n31_39 -->
<g id="edge7" class="edge">
<title>n43_11&#45;&gt;n31_39</title>
<path fill="none" stroke="black" d="M172.38,-893.09C182.97,-880.25 197.89,-862.18 210,-847.51"/>
<polygon fill="black" stroke="black" points="212.48,-849.99 216.15,-840.05 207.08,-845.54 212.48,-849.99"/>
<text text-anchor="middle" x="214.34" y="-861.2" font-family="Times,serif" font-size="14.00">165</text>
</g>
<!-- n53_15&#45;&gt;n85_7 -->
<g id="edge10" class="edge">
<title>n53_15&#45;&gt;n85_7</title>
<path fill="none" stroke="black" d="M112.48,-802.9C110.86,-797.3 109.16,-791.04 107.84,-785.25 106.07,-777.5 104.47,-769.04 103.13,-761.22"/>
<polygon fill="black" stroke="black" points="106.61,-760.83 101.54,-751.53 99.7,-761.96 106.61,-760.83"/>
<text text-anchor="middle" x="121.34" y="-771.95" font-family="Times,serif" font-size="14.00">261</text>
</g>
<!-- n59_37 -->
<g id="node12" class="node">
<title>n59_37</title>
<ellipse fill="none" stroke="black" cx="205.84" cy="-732" rx="47.53" ry="18"/>
<text text-anchor="middle" x="205.84" y="-727.33" font-family="Times,serif" font-size="14.00">n59_37</text>
</g>
<!-- n53_15&#45;&gt;n59_37 -->
<g id="edge11" class="edge">
<title>n53_15&#45;&gt;n59_37</title>
<path fill="none" stroke="black" d="M133.98,-804.25C147.29,-791.05 166.39,-772.12 181.55,-757.08"/>
<polygon fill="black" stroke="black" points="183.79,-759.79 188.43,-750.26 178.86,-754.82 183.79,-759.79"/>
<text text-anchor="middle" x="182.34" y="-771.95" font-family="Times,serif" font-size="14.00">121</text>
</g>
<!-- n31_39&#45;&gt;n59_37 -->
<g id="edge19" class="edge">
<title>n31_39&#45;&gt;n59_37</title>
<path fill="none" stroke="black" d="M225.9,-803.01C222.48,-791.06 217.84,-774.88 213.89,-761.08"/>
<polygon fill="black" stroke="black" points="217.3,-760.31 211.18,-751.66 210.57,-762.23 217.3,-760.31"/>
<text text-anchor="middle" x="233.34" y="-771.95" font-family="Times,serif" font-size="14.00">167</text>
</g>
<!-- n29_63 -->
<g id="node17" class="node">
<title>n29_63</title>
<ellipse fill="none" stroke="black" cx="318.84" cy="-732" rx="47.53" ry="18"/>
<text text-anchor="middle" x="318.84" y="-727.33" font-family="Times,serif" font-size="14.00">n29_63</text>
</g>
<!-- n31_39&#45;&gt;n29_63 -->
<g id="edge20" class="edge">
<title>n31_39&#45;&gt;n29_63</title>
<path fill="none" stroke="black" d="M246.98,-804.25C260.29,-791.05 279.39,-772.12 294.55,-757.08"/>
<polygon fill="black" stroke="black" points="296.79,-759.79 301.43,-750.26 291.86,-754.82 296.79,-759.79"/>
<text text-anchor="middle" x="295.34" y="-771.95" font-family="Times,serif" font-size="14.00">135</text>
</g>
<!-- n5_43&#45;&gt;n31_39 -->
<g id="edge21" class="edge">
<title>n5_43&#45;&gt;n31_39</title>
<path fill="none" stroke="black" d="M258.92,-892.26C254.08,-880.19 247.51,-863.81 241.94,-849.92"/>
<polygon fill="black" stroke="black" points="245.27,-848.83 238.3,-840.86 238.78,-851.44 245.27,-848.83"/>
<text text-anchor="middle" x="264.34" y="-861.2" font-family="Times,serif" font-size="14.00">155</text>
</g>
<!-- n13_59 -->
<g id="node18" class="node">
<title>n13_59</title>
<ellipse fill="none" stroke="black" cx="343.84" cy="-821.25" rx="47.53" ry="18"/>
<text text-anchor="middle" x="343.84" y="-816.58" font-family="Times,serif" font-size="14.00">n13_59</text>
</g>
<!-- n5_43&#45;&gt;n13_59 -->
<g id="edge22" class="edge">
<title>n5_43&#45;&gt;n13_59</title>
<path fill="none" stroke="black" d="M280.14,-893.5C291.76,-880.5 308.35,-861.95 321.68,-847.04"/>
<polygon fill="black" stroke="black" points="324.03,-849.66 328.08,-839.87 318.81,-845 324.03,-849.66"/>
<text text-anchor="middle" x="324.34" y="-861.2" font-family="Times,serif" font-size="14.00">129</text>
</g>
<!-- n59_37&#45;&gt;n85_33 -->
<g id="edge17" class="edge">
<title>n59_37&#45;&gt;n85_33</title>
<path fill="none" stroke="black" d="M201.2,-713.59C199.75,-707.99 198.18,-701.74 196.84,-696 195.02,-688.21 193.17,-679.73 191.53,-671.91"/>
<polygon fill="black" stroke="black" points="194.98,-671.3 189.52,-662.22 188.12,-672.72 194.98,-671.3"/>
<text text-anchor="middle" x="210.34" y="-682.7" font-family="Times,serif" font-size="14.00">111</text>
</g>
<!-- n53_63 -->
<g id="node16" class="node">
<title>n53_63</title>
<ellipse fill="none" stroke="black" cx="298.84" cy="-642.75" rx="47.53" ry="18"/>
<text text-anchor="middle" x="298.84" y="-638.08" font-family="Times,serif" font-size="14.00">n53_63</text>
</g>
<!-- n59_37&#45;&gt;n53_63 -->
<g id="edge18" class="edge">
<title>n59_37&#45;&gt;n53_63</title>
<path fill="none" stroke="black" d="M222.9,-715C237.1,-701.67 257.52,-682.51 273.61,-667.42"/>
<polygon fill="black" stroke="black" points="275.57,-670.38 280.47,-660.98 270.78,-665.27 275.57,-670.38"/>
<text text-anchor="middle" x="273.34" y="-682.7" font-family="Times,serif" font-size="14.00">149</text>
</g>
<!-- n79_53&#45;&gt;n109_57 -->
<g id="edge23" class="edge">
<title>n79_53&#45;&gt;n109_57</title>
<path fill="none" stroke="black" d="M239.92,-536.09C229.03,-523.25 213.71,-505.18 201.26,-490.51"/>
<polygon fill="black" stroke="black" points="204.06,-488.4 194.93,-483.04 198.72,-492.93 204.06,-488.4"/>
<text text-anchor="middle" x="236.34" y="-504.2" font-family="Times,serif" font-size="14.00">223</text>
</g>
<!-- n75_81 -->
<g id="node19" class="node">
<title>n75_81</title>
<ellipse fill="none" stroke="black" cx="298.84" cy="-464.25" rx="47.53" ry="18"/>
<text text-anchor="middle" x="298.84" y="-459.57" font-family="Times,serif" font-size="14.00">n75_81</text>
</g>
<!-- n79_53&#45;&gt;n75_81 -->
<g id="edge24" class="edge">
<title>n79_53&#45;&gt;n75_81</title>
<path fill="none" stroke="black" d="M257.73,-535.4C260.53,-524.88 264.86,-511.33 270.84,-500.25 272.61,-496.96 274.7,-493.68 276.93,-490.51"/>
<polygon fill="black" stroke="black" points="279.63,-492.74 282.93,-482.67 274.08,-488.49 279.63,-492.74"/>
<text text-anchor="middle" x="284.34" y="-504.2" font-family="Times,serif" font-size="14.00">185</text>
</g>
<!-- n125_83 -->
<g id="node24" class="node">
<title>n125_83</title>
<ellipse fill="none" stroke="black" cx="103.84" cy="-285.75" rx="53.84" ry="18"/>
<text text-anchor="middle" x="103.84" y="-281.07" font-family="Times,serif" font-size="14.00">n125_83</text>
</g>
<!-- n127_67&#45;&gt;n125_83 -->
<g id="edge33" class="edge">
<title>n127_67&#45;&gt;n125_83</title>
<path fill="none" stroke="black" d="M72.96,-356.91C76.74,-346.63 81.82,-333.34 86.84,-321.75 87.93,-319.24 89.1,-316.65 90.29,-314.06"/>
<polygon fill="black" stroke="black" points="93.44,-315.6 94.59,-305.07 87.12,-312.58 93.44,-315.6"/>
<text text-anchor="middle" x="100.34" y="-325.7" font-family="Times,serif" font-size="14.00">147</text>
</g>
<!-- n109_57&#45;&gt;n127_67 -->
<g id="edge25" class="edge">
<title>n109_57&#45;&gt;n127_67</title>
<path fill="none" stroke="black" d="M159.11,-447.25C141.51,-433.66 116.04,-413.99 96.32,-398.76"/>
<polygon fill="black" stroke="black" points="98.69,-396.17 88.63,-392.83 94.41,-401.71 98.69,-396.17"/>
<text text-anchor="middle" x="147.34" y="-414.95" font-family="Times,serif" font-size="14.00">113</text>
</g>
<!-- n107_79 -->
<g id="node20" class="node">
<title>n107_79</title>
<ellipse fill="none" stroke="black" cx="192.84" cy="-375" rx="53.84" ry="18"/>
<text text-anchor="middle" x="192.84" y="-370.32" font-family="Times,serif" font-size="14.00">n107_79</text>
</g>
<!-- n109_57&#45;&gt;n107_79 -->
<g id="edge26" class="edge">
<title>n109_57&#45;&gt;n107_79</title>
<path fill="none" stroke="black" d="M182.41,-446.01C184.17,-434.18 186.55,-418.2 188.59,-404.5"/>
<polygon fill="black" stroke="black" points="192.04,-405.11 190.05,-394.7 185.12,-404.07 192.04,-405.11"/>
<text text-anchor="middle" x="195.84" y="-414.95" font-family="Times,serif" font-size="14.00">53</text>
</g>
<!-- n53_63&#45;&gt;n79_53 -->
<g id="edge31" class="edge">
<title>n53_63&#45;&gt;n79_53</title>
<path fill="none" stroke="black" d="M290.16,-624.93C283.85,-612.69 275.18,-595.87 267.89,-581.73"/>
<polygon fill="black" stroke="black" points="271.03,-580.2 263.34,-572.91 264.81,-583.41 271.03,-580.2"/>
<text text-anchor="middle" x="293.34" y="-593.45" font-family="Times,serif" font-size="14.00">153</text>
</g>
<!-- n61_75 -->
<g id="node23" class="node">
<title>n61_75</title>
<ellipse fill="none" stroke="black" cx="366.84" cy="-553.5" rx="47.53" ry="18"/>
<text text-anchor="middle" x="366.84" y="-548.83" font-family="Times,serif" font-size="14.00">n61_75</text>
</g>
<!-- n53_63&#45;&gt;n61_75 -->
<g id="edge32" class="edge">
<title>n53_63&#45;&gt;n61_75</title>
<path fill="none" stroke="black" d="M311.63,-625.34C321.54,-612.62 335.45,-594.77 346.83,-580.17"/>
<polygon fill="black" stroke="black" points="349.56,-582.37 352.94,-572.33 344.04,-578.06 349.56,-582.37"/>
<text text-anchor="middle" x="347.84" y="-593.45" font-family="Times,serif" font-size="14.00">49</text>
</g>
<!-- n29_63&#45;&gt;n53_63 -->
<g id="edge29" class="edge">
<title>n29_63&#45;&gt;n53_63</title>
<path fill="none" stroke="black" d="M314.89,-713.76C312.15,-701.81 308.44,-685.63 305.28,-671.83"/>
<polygon fill="black" stroke="black" points="308.77,-671.39 303.12,-662.43 301.94,-672.96 308.77,-671.39"/>
<text text-anchor="middle" x="323.34" y="-682.7" font-family="Times,serif" font-size="14.00">165</text>
</g>
<!-- n39_87 -->
<g id="node22" class="node">
<title>n39_87</title>
<ellipse fill="none" stroke="black" cx="411.84" cy="-642.75" rx="47.53" ry="18"/>
<text text-anchor="middle" x="411.84" y="-638.08" font-family="Times,serif" font-size="14.00">n39_87</text>
</g>
<!-- n29_63&#45;&gt;n39_87 -->
<g id="edge30" class="edge">
<title>n29_63&#45;&gt;n39_87</title>
<path fill="none" stroke="black" d="M335.9,-715C350.1,-701.67 370.52,-682.51 386.61,-667.42"/>
<polygon fill="black" stroke="black" points="388.57,-670.38 393.47,-660.98 383.78,-665.27 388.57,-670.38"/>
<text text-anchor="middle" x="386.34" y="-682.7" font-family="Times,serif" font-size="14.00">119</text>
</g>
<!-- n13_59&#45;&gt;n29_63 -->
<g id="edge27" class="edge">
<title>n13_59&#45;&gt;n29_63</title>
<path fill="none" stroke="black" d="M338.9,-803.01C335.48,-791.06 330.84,-774.88 326.89,-761.08"/>
<polygon fill="black" stroke="black" points="330.3,-760.31 324.18,-751.66 323.57,-762.23 330.3,-760.31"/>
<text text-anchor="middle" x="341.84" y="-771.95" font-family="Times,serif" font-size="14.00">97</text>
</g>
<!-- n13_89 -->
<g id="node21" class="node">
<title>n13_89</title>
<ellipse fill="none" stroke="black" cx="431.84" cy="-732" rx="47.53" ry="18"/>
<text text-anchor="middle" x="431.84" y="-727.33" font-family="Times,serif" font-size="14.00">n13_89</text>
</g>
<!-- n13_59&#45;&gt;n13_89 -->
<g id="edge28" class="edge">
<title>n13_59&#45;&gt;n13_89</title>
<path fill="none" stroke="black" d="M359.98,-804.25C373.29,-791.05 392.39,-772.12 407.55,-757.08"/>
<polygon fill="black" stroke="black" points="409.79,-759.79 414.43,-750.26 404.86,-754.82 409.79,-759.79"/>
<text text-anchor="middle" x="408.34" y="-771.95" font-family="Times,serif" font-size="14.00">243</text>
</g>
<!-- n75_81&#45;&gt;n107_79 -->
<g id="edge38" class="edge">
<title>n75_81&#45;&gt;n107_79</title>
<path fill="none" stroke="black" d="M279.89,-447.65C263.51,-434.17 239.61,-414.5 221,-399.18"/>
<polygon fill="black" stroke="black" points="223.46,-396.67 213.51,-393.02 219.01,-402.07 223.46,-396.67"/>
<text text-anchor="middle" x="268.34" y="-414.95" font-family="Times,serif" font-size="14.00">191</text>
</g>
<!-- n75_105 -->
<g id="node27" class="node">
<title>n75_105</title>
<ellipse fill="none" stroke="black" cx="318.84" cy="-375" rx="53.84" ry="18"/>
<text text-anchor="middle" x="318.84" y="-370.32" font-family="Times,serif" font-size="14.00">n75_105</text>
</g>
<!-- n75_81&#45;&gt;n75_105 -->
<g id="edge39" class="edge">
<title>n75_81&#45;&gt;n75_105</title>
<path fill="none" stroke="black" d="M302.79,-446.01C305.53,-434.06 309.24,-417.88 312.4,-404.08"/>
<polygon fill="black" stroke="black" points="315.73,-405.21 314.56,-394.68 308.91,-403.64 315.73,-405.21"/>
<text text-anchor="middle" x="323.34" y="-414.95" font-family="Times,serif" font-size="14.00">125</text>
</g>
<!-- n107_79&#45;&gt;n125_83 -->
<g id="edge36" class="edge">
<title>n107_79&#45;&gt;n125_83</title>
<path fill="none" stroke="black" d="M176.1,-357.59C162.67,-344.43 143.63,-325.76 128.47,-310.9"/>
<polygon fill="black" stroke="black" points="131.18,-308.65 121.58,-304.15 126.28,-313.65 131.18,-308.65"/>
<text text-anchor="middle" x="169.34" y="-325.7" font-family="Times,serif" font-size="14.00">131</text>
</g>
<!-- n99_113 -->
<g id="node26" class="node">
<title>n99_113</title>
<ellipse fill="none" stroke="black" cx="229.84" cy="-285.75" rx="53.84" ry="18"/>
<text text-anchor="middle" x="229.84" y="-281.07" font-family="Times,serif" font-size="14.00">n99_113</text>
</g>
<!-- n107_79&#45;&gt;n99_113 -->
<g id="edge37" class="edge">
<title>n107_79&#45;&gt;n99_113</title>
<path fill="none" stroke="black" d="M199.95,-357.05C204.24,-346.82 209.84,-333.53 214.84,-321.75 215.89,-319.29 216.98,-316.73 218.07,-314.16"/>
<polygon fill="black" stroke="black" points="221.18,-315.79 221.9,-305.22 214.74,-313.04 221.18,-315.79"/>
<text text-anchor="middle" x="228.34" y="-325.7" font-family="Times,serif" font-size="14.00">235</text>
</g>
<!-- n13_89&#45;&gt;n39_87 -->
<g id="edge43" class="edge">
<title>n13_89&#45;&gt;n39_87</title>
<path fill="none" stroke="black" d="M427.89,-713.76C425.15,-701.81 421.44,-685.63 418.28,-671.83"/>
<polygon fill="black" stroke="black" points="421.77,-671.39 416.12,-662.43 414.94,-672.96 421.77,-671.39"/>
<text text-anchor="middle" x="436.34" y="-682.7" font-family="Times,serif" font-size="14.00">153</text>
</g>
<!-- n15_105 -->
<g id="node30" class="node">
<title>n15_105</title>
<ellipse fill="none" stroke="black" cx="530.84" cy="-642.75" rx="53.84" ry="18"/>
<text text-anchor="middle" x="530.84" y="-638.08" font-family="Times,serif" font-size="14.00">n15_105</text>
</g>
<!-- n13_89&#45;&gt;n15_105 -->
<g id="edge44" class="edge">
<title>n13_89&#45;&gt;n15_105</title>
<path fill="none" stroke="black" d="M450,-715C465.11,-701.67 486.85,-682.51 503.98,-667.42"/>
<polygon fill="black" stroke="black" points="506.14,-670.19 511.32,-660.95 501.51,-664.93 506.14,-670.19"/>
<text text-anchor="middle" x="503.34" y="-682.7" font-family="Times,serif" font-size="14.00">127</text>
</g>
<!-- n39_87&#45;&gt;n61_75 -->
<g id="edge41" class="edge">
<title>n39_87&#45;&gt;n61_75</title>
<path fill="none" stroke="black" d="M403.16,-624.93C396.85,-612.69 388.18,-595.87 380.89,-581.73"/>
<polygon fill="black" stroke="black" points="384.03,-580.2 376.34,-572.91 377.81,-583.41 384.03,-580.2"/>
<text text-anchor="middle" x="406.34" y="-593.45" font-family="Times,serif" font-size="14.00">127</text>
</g>
<!-- n35_103 -->
<g id="node29" class="node">
<title>n35_103</title>
<ellipse fill="none" stroke="black" cx="485.84" cy="-553.5" rx="53.84" ry="18"/>
<text text-anchor="middle" x="485.84" y="-548.83" font-family="Times,serif" font-size="14.00">n35_103</text>
</g>
<!-- n39_87&#45;&gt;n35_103 -->
<g id="edge42" class="edge">
<title>n39_87&#45;&gt;n35_103</title>
<path fill="none" stroke="black" d="M425.76,-625.34C436.64,-612.5 451.97,-594.43 464.42,-579.76"/>
<polygon fill="black" stroke="black" points="466.95,-582.18 470.75,-572.29 461.61,-577.65 466.95,-582.18"/>
<text text-anchor="middle" x="468.34" y="-593.45" font-family="Times,serif" font-size="14.00">137</text>
</g>
<!-- n61_75&#45;&gt;n75_81 -->
<g id="edge34" class="edge">
<title>n61_75&#45;&gt;n75_81</title>
<path fill="none" stroke="black" d="M354.05,-536.09C344.14,-523.37 330.23,-505.52 318.85,-490.92"/>
<polygon fill="black" stroke="black" points="321.64,-488.81 312.73,-483.08 316.12,-493.12 321.64,-488.81"/>
<text text-anchor="middle" x="347.84" y="-504.2" font-family="Times,serif" font-size="14.00">49</text>
</g>
<!-- n65_111 -->
<g id="node25" class="node">
<title>n65_111</title>
<ellipse fill="none" stroke="black" cx="417.84" cy="-464.25" rx="53.84" ry="18"/>
<text text-anchor="middle" x="417.84" y="-459.57" font-family="Times,serif" font-size="14.00">n65_111</text>
</g>
<!-- n61_75&#45;&gt;n65_111 -->
<g id="edge35" class="edge">
<title>n61_75&#45;&gt;n65_111</title>
<path fill="none" stroke="black" d="M376.67,-535.68C383.89,-523.32 393.85,-506.29 402.16,-492.07"/>
<polygon fill="black" stroke="black" points="405.07,-494.02 407.1,-483.63 399.03,-490.49 405.07,-494.02"/>
<text text-anchor="middle" x="410.34" y="-504.2" font-family="Times,serif" font-size="14.00">245</text>
</g>
<!-- n129_103 -->
<g id="node28" class="node">
<title>n129_103</title>
<ellipse fill="none" stroke="black" cx="132.84" cy="-196.5" rx="60.15" ry="18"/>
<text text-anchor="middle" x="132.84" y="-191.82" font-family="Times,serif" font-size="14.00">n129_103</text>
</g>
<!-- n125_83&#45;&gt;n129_103 -->
<g id="edge40" class="edge">
<title>n125_83&#45;&gt;n129_103</title>
<path fill="none" stroke="black" d="M109.57,-267.51C113.54,-255.56 118.92,-239.38 123.5,-225.58"/>
<polygon fill="black" stroke="black" points="126.81,-226.73 126.64,-216.14 120.17,-224.52 126.81,-226.73"/>
<text text-anchor="middle" x="135.34" y="-236.45" font-family="Times,serif" font-size="14.00">153</text>
</g>
<!-- n65_111&#45;&gt;n75_105 -->
<g id="edge52" class="edge">
<title>n65_111&#45;&gt;n75_105</title>
<path fill="none" stroke="black" d="M399.68,-447.25C384.56,-433.92 362.82,-414.76 345.69,-399.67"/>
<polygon fill="black" stroke="black" points="348.17,-397.18 338.35,-393.2 343.54,-402.44 348.17,-397.18"/>
<text text-anchor="middle" x="385.84" y="-414.95" font-family="Times,serif" font-size="14.00">37</text>
</g>
<!-- n61_133 -->
<g id="node34" class="node">
<title>n61_133</title>
<ellipse fill="none" stroke="black" cx="444.84" cy="-375" rx="53.84" ry="18"/>
<text text-anchor="middle" x="444.84" y="-370.32" font-family="Times,serif" font-size="14.00">n61_133</text>
</g>
<!-- n65_111&#45;&gt;n61_133 -->
<g id="edge53" class="edge">
<title>n65_111&#45;&gt;n61_133</title>
<path fill="none" stroke="black" d="M423.17,-446.01C426.87,-434.06 431.88,-417.88 436.15,-404.08"/>
<polygon fill="black" stroke="black" points="439.46,-405.24 439.07,-394.65 432.77,-403.17 439.46,-405.24"/>
<text text-anchor="middle" x="446.34" y="-414.95" font-family="Times,serif" font-size="14.00">115</text>
</g>
<!-- n99_113&#45;&gt;n129_103 -->
<g id="edge54" class="edge">
<title>n99_113&#45;&gt;n129_103</title>
<path fill="none" stroke="black" d="M211.59,-268.34C196.83,-255.06 175.83,-236.17 159.23,-221.23"/>
<polygon fill="black" stroke="black" points="161.9,-218.94 152.13,-214.85 157.22,-224.14 161.9,-218.94"/>
<text text-anchor="middle" x="203.34" y="-236.45" font-family="Times,serif" font-size="14.00">249</text>
</g>
<!-- n103_127 -->
<g id="node35" class="node">
<title>n103_127</title>
<ellipse fill="none" stroke="black" cx="270.84" cy="-196.5" rx="60.15" ry="18"/>
<text text-anchor="middle" x="270.84" y="-191.82" font-family="Times,serif" font-size="14.00">n103_127</text>
</g>
<!-- n99_113&#45;&gt;n103_127 -->
<g id="edge55" class="edge">
<title>n99_113&#45;&gt;n103_127</title>
<path fill="none" stroke="black" d="M237.94,-267.51C243.67,-255.32 251.46,-238.73 258.03,-224.76"/>
<polygon fill="black" stroke="black" points="261.03,-226.61 262.11,-216.07 254.69,-223.63 261.03,-226.61"/>
<text text-anchor="middle" x="262.84" y="-236.45" font-family="Times,serif" font-size="14.00">67</text>
</g>
<!-- n75_105&#45;&gt;n99_113 -->
<g id="edge50" class="edge">
<title>n75_105&#45;&gt;n99_113</title>
<path fill="none" stroke="black" d="M302.1,-357.59C288.67,-344.43 269.63,-325.76 254.47,-310.9"/>
<polygon fill="black" stroke="black" points="257.18,-308.65 247.58,-304.15 252.28,-313.65 257.18,-308.65"/>
<text text-anchor="middle" x="295.34" y="-325.7" font-family="Times,serif" font-size="14.00">117</text>
</g>
<!-- n79_123 -->
<g id="node33" class="node">
<title>n79_123</title>
<ellipse fill="none" stroke="black" cx="355.84" cy="-285.75" rx="53.84" ry="18"/>
<text text-anchor="middle" x="355.84" y="-281.07" font-family="Times,serif" font-size="14.00">n79_123</text>
</g>
<!-- n75_105&#45;&gt;n79_123 -->
<g id="edge51" class="edge">
<title>n75_105&#45;&gt;n79_123</title>
<path fill="none" stroke="black" d="M324.96,-356.91C328.74,-346.63 333.82,-333.34 338.84,-321.75 339.93,-319.24 341.1,-316.65 342.29,-314.06"/>
<polygon fill="black" stroke="black" points="345.44,-315.6 346.59,-305.07 339.12,-312.58 345.44,-315.6"/>
<text text-anchor="middle" x="347.84" y="-325.7" font-family="Times,serif" font-size="14.00">35</text>
</g>
<!-- n137_131 -->
<g id="node32" class="node">
<title>n137_131</title>
<ellipse fill="none" stroke="black" cx="201.84" cy="-107.25" rx="60.15" ry="18"/>
<text text-anchor="middle" x="201.84" y="-102.58" font-family="Times,serif" font-size="14.00">n137_131</text>
</g>
<!-- n129_103&#45;&gt;n137_131 -->
<g id="edge47" class="edge">
<title>n129_103&#45;&gt;n137_131</title>
<path fill="none" stroke="black" d="M146.14,-178.68C156.17,-166 170.09,-148.4 181.5,-133.97"/>
<polygon fill="black" stroke="black" points="184.18,-136.22 187.64,-126.21 178.69,-131.88 184.18,-136.22"/>
<text text-anchor="middle" x="186.34" y="-147.2" font-family="Times,serif" font-size="14.00">189</text>
</g>
<!-- n35_103&#45;&gt;n65_111 -->
<g id="edge45" class="edge">
<title>n35_103&#45;&gt;n65_111</title>
<path fill="none" stroke="black" d="M472.73,-535.68C462.85,-523 449.13,-505.4 437.88,-490.97"/>
<polygon fill="black" stroke="black" points="440.75,-488.95 431.84,-483.21 435.23,-493.25 440.75,-488.95"/>
<text text-anchor="middle" x="471.34" y="-504.2" font-family="Times,serif" font-size="14.00">111</text>
</g>
<!-- n33_123 -->
<g id="node31" class="node">
<title>n33_123</title>
<ellipse fill="none" stroke="black" cx="543.84" cy="-464.25" rx="53.84" ry="18"/>
<text text-anchor="middle" x="543.84" y="-459.57" font-family="Times,serif" font-size="14.00">n33_123</text>
</g>
<!-- n35_103&#45;&gt;n33_123 -->
<g id="edge46" class="edge">
<title>n35_103&#45;&gt;n33_123</title>
<path fill="none" stroke="black" d="M497.02,-535.68C505.31,-523.2 516.78,-505.96 526.28,-491.66"/>
<polygon fill="black" stroke="black" points="529.03,-493.84 531.65,-483.58 523.2,-489.97 529.03,-493.84"/>
<text text-anchor="middle" x="533.34" y="-504.2" font-family="Times,serif" font-size="14.00">131</text>
</g>
<!-- n15_105&#45;&gt;n35_103 -->
<g id="edge48" class="edge">
<title>n15_105&#45;&gt;n35_103</title>
<path fill="none" stroke="black" d="M521.95,-624.51C515.66,-612.32 507.1,-595.73 499.9,-581.76"/>
<polygon fill="black" stroke="black" points="503.1,-580.33 495.4,-573.05 496.88,-583.54 503.1,-580.33"/>
<text text-anchor="middle" x="520.84" y="-593.45" font-family="Times,serif" font-size="14.00">71</text>
</g>
<!-- n15_105&#45;&gt;n33_123 -->
<g id="edge49" class="edge">
<title>n15_105&#45;&gt;n33_123</title>
<path fill="none" stroke="black" d="M536.41,-624.35C540.64,-610.26 546.18,-589.82 548.84,-571.5 553.38,-540.15 553.96,-531.77 550.84,-500.25 550.63,-498.17 550.36,-496.02 550.04,-493.87"/>
<polygon fill="black" stroke="black" points="553.49,-493.31 548.28,-484.08 546.6,-494.55 553.49,-493.31"/>
<text text-anchor="middle" x="565.34" y="-548.83" font-family="Times,serif" font-size="14.00">517</text>
</g>
<!-- n33_123&#45;&gt;n61_133 -->
<g id="edge56" class="edge">
<title>n33_123&#45;&gt;n61_133</title>
<path fill="none" stroke="black" d="M525.68,-447.25C510.56,-433.92 488.82,-414.76 471.69,-399.67"/>
<polygon fill="black" stroke="black" points="474.17,-397.18 464.35,-393.2 469.54,-402.44 474.17,-397.18"/>
<text text-anchor="middle" x="516.34" y="-414.95" font-family="Times,serif" font-size="14.00">219</text>
</g>
<!-- n139_140 -->
<g id="node36" class="node">
<title>n139_140</title>
<ellipse fill="none" stroke="black" cx="201.84" cy="-18" rx="60.15" ry="18"/>
<text text-anchor="middle" x="201.84" y="-13.32" font-family="Times,serif" font-size="14.00">n139_140</text>
</g>
<!-- n137_131&#45;&gt;n139_140 -->
<g id="edge59" class="edge">
<title>n137_131&#45;&gt;n139_140</title>
<path fill="none" stroke="black" d="M201.84,-89.01C201.84,-77.18 201.84,-61.2 201.84,-47.5"/>
<polygon fill="black" stroke="black" points="205.34,-47.72 201.84,-37.72 198.34,-47.72 205.34,-47.72"/>
<text text-anchor="middle" x="210.84" y="-57.95" font-family="Times,serif" font-size="14.00">28</text>
</g>
<!-- n79_123&#45;&gt;n103_127 -->
<g id="edge57" class="edge">
<title>n79_123&#45;&gt;n103_127</title>
<path fill="none" stroke="black" d="M339.85,-268.34C327.23,-255.38 309.41,-237.09 295.04,-222.34"/>
<polygon fill="black" stroke="black" points="297.59,-219.94 288.1,-215.22 292.57,-224.82 297.59,-219.94"/>
<text text-anchor="middle" x="334.34" y="-236.45" font-family="Times,serif" font-size="14.00">253</text>
</g>
<!-- n61_133&#45;&gt;n79_123 -->
<g id="edge60" class="edge">
<title>n61_133&#45;&gt;n79_123</title>
<path fill="none" stroke="black" d="M428.1,-357.59C414.67,-344.43 395.63,-325.76 380.47,-310.9"/>
<polygon fill="black" stroke="black" points="383.18,-308.65 373.58,-304.15 378.28,-313.65 383.18,-308.65"/>
<text text-anchor="middle" x="421.34" y="-325.7" font-family="Times,serif" font-size="14.00">157</text>
</g>
<!-- n103_127&#45;&gt;n137_131 -->
<g id="edge58" class="edge">
<title>n103_127&#45;&gt;n137_131</title>
<path fill="none" stroke="black" d="M257.53,-178.68C247.51,-166 233.59,-148.4 222.18,-133.97"/>
<polygon fill="black" stroke="black" points="224.99,-131.88 216.04,-126.21 219.5,-136.22 224.99,-131.88"/>
<text text-anchor="middle" x="255.34" y="-147.2" font-family="Times,serif" font-size="14.00">311</text>
</g>
</g>
</svg>
