<?xml version="1.0" encoding="UTF-8" standalone="no"?>
<!DOCTYPE svg PUBLIC "-//W3C//DTD SVG 1.1//EN" "http://www.w3.org/Graphics/SVG/1.1/DTD/svg11.dtd">
<svg  xmlns="http://www.w3.org/2000/svg" xmlns:xlink="http://www.w3.org/1999/xlink" width="100pt" height="100pt" viewBox="1550 1595 98161 98455">
<path fill="green" stroke="green" d="M 97579,50427L 97579,51646L 97979,51646L 97979,52867L 98023,52867L 98023,54102L 98161,54102L 98161,55232L 97242,55232L 97242,56426L 97080,56426L 97080,57702L 97427,57702L 97427,58898L 97205,58898L 97205,60155L 97260,60155L 97260,61205L 96394,61205L 96394,62368L 96062,62368L 96062,63533L 95742,63533L 95742,64773L 95648,64773L 95648,65910L 95216,65910L 95216,67138L 95029,67138L 95029,68315L 94683,68315L 94683,69398L 94106,69398L 94106,70530L 93646,70530L 93646,71347L 92549,71347L 92549,72469L 92091,72469L 92091,73864L 92100,73864L 92100,74887L 91422,74887L 91422,75686L 90397,75686L 90397,76792L 89868,76792L 89868,77685L 89025,77685L 89025,78898L 88622,78898L 88622,79806L 87800,79806L 87800,80952L 87271,80952L 87271,81448L 85974,81448L 85974,82674L 85519,82674L 85519,83693L 84814,83693L 84814,84176L 83568,84176L 83568,84730L 82425,84730L 82425,85776L 81743,85776L 81743,86332L 80628,86332L 80628,87132L 79726,87132L 79726,88603L 79331,88603L 79331,89232L 78270,89232L 78270,89817L 77186,89817L 77186,90461L 76148,90461L 76148,90688L 74856,90688L 74856,91211L 73764,91211L 73764,92425L 73052,92425L 73052,92965L 71954,92965L 71954,93396L 70805,93396L 70805,93393L 69468,93393L 69468,93974L 68405,93974L 68405,95172L 67575,95172L 67575,95051L 66226,95051L 66226,95602L 65131,95602L 65131,95529L 63837,95529L 63837,96326L 62806,96326L 62806,96712L 61648,96712L 61648,97174L 60501,97174L 60501,97332L 59285,97332L 59285,97744L 58115,97744L 58115,97763L 56878,97763L 56878,97313L 55594,97313L 55594,98176L 54462,98176L 54462,97840L 53211,97840L 53211,97495L 51981,97495L 51981,98113L 50787,98113L 50787,98455L 49565,98455L 49565,98373L 48339,98373L 48339,97498L 47163,97498L 47163,97841L 45924,97841L 45924,97821L 44702,97821L 44702,97255L 43550,97255L 43550,97307L 42317,97307L 42317,96702L 41196,96702L 41196,96631L 39979,96631L 39979,96403L 38791,96403L 38791,95999L 37648,95999L 37648,95993L 36391,95993L 36391,95492L 35276,95492L 35276,95488L 33994,95488L 33994,94745L 32969,94745L 32969,94769L 31649,94769L 31649,93917L 30684,93917L 30684,93437L 29567,93437L 29567,92647L 28603,92647L 28603,92726L 27191,92726L 27191,92032L 26173,92032L 26173,91085L 25315,91085L 25315,90783L 24067,90783L 24067,90141L 23024,90141L 23024,88970L 22352,88970L 22352,88237L 21389,88237L 21389,87800L 20193,87800L 20193,86894L 19360,86894L 19360,85767L 18732,85767L 18732,85441L 17397,85441L 17397,84204L 16897,84204L 16897,83524L 15867,83524L 15867,83010L 14642,83010L 14642,81940L 14002,81940L 14002,80895L 13350,80895L 13350,80111L 12386,80111L 12386,78737L 12178,78737L 12178,77798L 11422,77798L 11422,76896L 10607,76896L 10607,76270L 9349,76270L 9349,75179L 8782,75179L 8782,74215L 8006,74215L 8006,72683L 8253,72683L 8253,71827L 7283,71827L 7283,70689L 6846,70689L 6846,69559L 6402,69559L 6402,68526L 5736,68526L 5736,67350L 5404,67350L 5404,66168L 5111,66168L 5111,65103L 4482,65103L 4482,64027L 3844,64027L 3844,62861L 3475,62861L 3475,61606L 3455,61606L 3455,60331L 3591,60331L 3591,59241L 2887,59241L 2887,57971L 3104,57971L 3104,56861L 2356,56861L 2356,55581L 2798,55581L 2798,54398L 2516,54398L 2516,53220L 2028,53220L 2028,52005L 1922,52005L 1922,50788L 1803,50788L 1803,50402L 94858,50402L 94858,48336L 1550,48336L 1550,47116L 1714,47116L 1714,45907L 1961,45907L 1961,44733L 2454,44733L 2454,43551L 2758,43551L 2758,42319L 2704,42319L 2704,41197L 3307,41197L 3307,39991L 3423,39991L 3423,38709L 3255,38709L 3255,37487L 3402,37487L 3402,36408L 4061,36408L 4061,35208L 4297,35208L 4297,33925L 4315,33925L 4315,32874L 5003,32874L 5003,31659L 5255,31659L 5255,30627L 5951,30627L 5951,29630L 6696,29630L 6696,28253L 6656,28253L 6656,27208L 7306,27208L 7306,26244L 8091,26244L 8091,25284L 8864,25284L 8864,24359L 9673,24359L 9673,22976L 9787,22976L 9787,22103L 10677,22103L 10677,20954L 11180,20954L 11180,20443L 12515,20443L 12515,19428L 13186,19428L 13186,18467L 13928,18467L 13928,17564L 14740,17564L 14740,16553L 15440,16553L 15440,15957L 16562,15957L 16562,14568L 16920,14568L 16920,13868L 17941,13868L 17941,12967L 18781,12967L 18781,12761L 20188,12761L 20188,11814L 20986,11814L 20986,11013L 21906,11013L 21906,10663L 23142,10663L 23142,9433L 23783,9433L 23783,9278L 25123,9278L 25123,8283L 25944,8283L 25944,8224L 27301,8224L 27301,7387L 28225,7387L 28225,6462L 29126,6462L 29126,6614L 30535,6614L 30535,5415L 31339,5415L 31339,5318L 32615,5318L 32615,5290L 33896,5290L 33896,4257L 34821,4257L 34821,3729L 35937,3729L 35937,3574L 37165,3574L 37165,3733L 38462,3733L 38462,3604L 39671,3604L 39671,2553L 40692,2553L 40692,2451L 41917,2451L 41917,2763L 43197,2763L 43197,2595L 44394,2595L 44394,1722L 45528,1722L 45528,2052L 46781,2052L 46781,2214L 48006,2214L 48006,2488L 49222,2488L 49222,2038L 50430,2038L 50430,1602L 51661,1602L 51661,1595L 52890,1595L 52890,1870L 54100,1870L 54100,1936L 55323,1936L 55323,2069L 56542,2069L 56542,2882L 57651,2882L 57651,3036L 58853,3036L 58853,2627L 60179,2627L 60179,3255L 61290,3255L 61290,3400L 62512,3400L 62512,3608L 63726,3608L 63726,4293L 64792,4293L 64792,4508L 66006,4508L 66006,4963L 67141,4963L 67141,5897L 68077,5897L 68077,6345L 69199,6345L 69199,6334L 70539,6334L 70539,7329L 71408,7329L 71408,7280L 72805,7280L 72805,7860L 73886,7860L 73886,8519L 74922,8519L 74922,9197L 75944,9197L 75944,9903L 76944,9903L 76944,10616L 77940,10616L 77940,11872L 78527,11872L 78527,12550L 79529,12550L 79529,13224L 80540,13224L 80540,14072L 81407,14072L 81407,14535L 82624,14535L 82624,15554L 83336,15554L 83336,16631L 83972,16631L 83972,17288L 85036,17288L 85036,17904L 86171,17904L 86171,19140L 86606,19140L 86606,20233L 87182,20233L 87182,20832L 88388,20832L 88388,21676L 89306,21676L 89306,23145L 89330,23145L 89330,24210L 89906,24210L 89906,25210L 90578,25210L 90578,25799L 91967,25799L 91967,27205L 91951,27205L 91951,28107L 92843,28107L 92843,29457L 92847,29457L 92847,30180L 94175,30180L 94175,31423L 94384,31423L 94384,32436L 95140,32436L 95140,33715L 95211,33715L 95211,34936L 95396,34936L 95396,36157L 95545,36157L 95545,37286L 95987,37286L 95987,38412L 96468,38412L 96468,39486L 97225,39486L 97225,40671L 97556,40671L 97556,41987L 97137,41987L 97137,43184L 97324,43184L 97324,44339L 97865,44339L 97865,45573L 97788,45573L 97788,46796L 97718,46796L 97718,47993L 98085,47993L 98085,49221L 97590,49221L 97590,50427 Z"></path>
<rect x="97579" y="50427" width="1" height="1" fill="red" /> <circle cx="97579" cy="51646" r="200" fill="red" /> <circle cx="97979" cy="51646" r="200" fill="red" /> <circle cx="97979" cy="52867" r="200" fill="red" /> <circle cx="98023" cy="52867" r="200" fill="red" /> <circle cx="98023" cy="54102" r="200" fill="red" /> <circle cx="98161" cy="54102" r="200" fill="red" /> <circle cx="98161" cy="55232" r="200" fill="red" /> <circle cx="97242" cy="55232" r="200" fill="red" /> <circle cx="97242" cy="56426" r="200" fill="red" /> <circle cx="97080" cy="56426" r="200" fill="red" /> <circle cx="97080" cy="57702" r="200" fill="red" /> <circle cx="97427" cy="57702" r="200" fill="red" /> <circle cx="97427" cy="58898" r="200" fill="red" /> <circle cx="97205" cy="58898" r="200" fill="red" /> <circle cx="97205" cy="60155" r="200" fill="red" /> <circle cx="97260" cy="60155" r="200" fill="red" /> <circle cx="97260" cy="61205" r="200" fill="red" /> <circle cx="96394" cy="61205" r="200" fill="red" /> <circle cx="96394" cy="62368" r="200" fill="red" /> <circle cx="96062" cy="62368" r="200" fill="red" /> <circle cx="96062" cy="63533" r="200" fill="red" /> <circle cx="95742" cy="63533" r="200" fill="red" /> <circle cx="95742" cy="64773" r="200" fill="red" /> <circle cx="95648" cy="64773" r="200" fill="red" /> <circle cx="95648" cy="65910" r="200" fill="red" /> <circle cx="95216" cy="65910" r="200" fill="red" /> <circle cx="95216" cy="67138" r="200" fill="red" /> <circle cx="95029" cy="67138" r="200" fill="red" /> <circle cx="95029" cy="68315" r="200" fill="red" /> <circle cx="94683" cy="68315" r="200" fill="red" /> <circle cx="94683" cy="69398" r="200" fill="red" /> <circle cx="94106" cy="69398" r="200" fill="red" /> <circle cx="94106" cy="70530" r="200" fill="red" /> <circle cx="93646" cy="70530" r="200" fill="red" /> <circle cx="93646" cy="71347" r="200" fill="red" /> <circle cx="92549" cy="71347" r="200" fill="red" /> <circle cx="92549" cy="72469" r="200" fill="red" /> <circle cx="92091" cy="72469" r="200" fill="red" /> <circle cx="92091" cy="73864" r="200" fill="red" /> <circle cx="92100" cy="73864" r="200" fill="red" /> <circle cx="92100" cy="74887" r="200" fill="red" /> <circle cx="91422" cy="74887" r="200" fill="red" /> <circle cx="91422" cy="75686" r="200" fill="red" /> <circle cx="90397" cy="75686" r="200" fill="red" /> <circle cx="90397" cy="76792" r="200" fill="red" /> <circle cx="89868" cy="76792" r="200" fill="red" /> <circle cx="89868" cy="77685" r="200" fill="red" /> <circle cx="89025" cy="77685" r="200" fill="red" /> <circle cx="89025" cy="78898" r="200" fill="red" /> <circle cx="88622" cy="78898" r="200" fill="red" /> <circle cx="88622" cy="79806" r="200" fill="red" /> <circle cx="87800" cy="79806" r="200" fill="red" /> <circle cx="87800" cy="80952" r="200" fill="red" /> <circle cx="87271" cy="80952" r="200" fill="red" /> <circle cx="87271" cy="81448" r="200" fill="red" /> <circle cx="85974" cy="81448" r="200" fill="red" /> <circle cx="85974" cy="82674" r="200" fill="red" /> <circle cx="85519" cy="82674" r="200" fill="red" /> <circle cx="85519" cy="83693" r="200" fill="red" /> <circle cx="84814" cy="83693" r="200" fill="red" /> <circle cx="84814" cy="84176" r="200" fill="red" /> <circle cx="83568" cy="84176" r="200" fill="red" /> <circle cx="83568" cy="84730" r="200" fill="red" /> <circle cx="82425" cy="84730" r="200" fill="red" /> <circle cx="82425" cy="85776" r="200" fill="red" /> <circle cx="81743" cy="85776" r="200" fill="red" /> <circle cx="81743" cy="86332" r="200" fill="red" /> <circle cx="80628" cy="86332" r="200" fill="red" /> <circle cx="80628" cy="87132" r="200" fill="red" /> <circle cx="79726" cy="87132" r="200" fill="red" /> <circle cx="79726" cy="88603" r="200" fill="red" /> <circle cx="79331" cy="88603" r="200" fill="red" /> <circle cx="79331" cy="89232" r="200" fill="red" /> <circle cx="78270" cy="89232" r="200" fill="red" /> <circle cx="78270" cy="89817" r="200" fill="red" /> <circle cx="77186" cy="89817" r="200" fill="red" /> <circle cx="77186" cy="90461" r="200" fill="red" /> <circle cx="76148" cy="90461" r="200" fill="red" /> <circle cx="76148" cy="90688" r="200" fill="red" /> <circle cx="74856" cy="90688" r="200" fill="red" /> <circle cx="74856" cy="91211" r="200" fill="red" /> <circle cx="73764" cy="91211" r="200" fill="red" /> <circle cx="73764" cy="92425" r="200" fill="red" /> <circle cx="73052" cy="92425" r="200" fill="red" /> <circle cx="73052" cy="92965" r="200" fill="red" /> <circle cx="71954" cy="92965" r="200" fill="red" /> <circle cx="71954" cy="93396" r="200" fill="red" /> <circle cx="70805" cy="93396" r="200" fill="red" /> <circle cx="70805" cy="93393" r="200" fill="red" /> <circle cx="69468" cy="93393" r="200" fill="red" /> <circle cx="69468" cy="93974" r="200" fill="red" /> <circle cx="68405" cy="93974" r="200" fill="red" /> <circle cx="68405" cy="95172" r="200" fill="red" /> <circle cx="67575" cy="95172" r="200" fill="red" /> <circle cx="67575" cy="95051" r="200" fill="red" /> <circle cx="66226" cy="95051" r="200" fill="red" /> <circle cx="66226" cy="95602" r="200" fill="red" /> <circle cx="65131" cy="95602" r="200" fill="red" /> <circle cx="65131" cy="95529" r="200" fill="red" /> <circle cx="63837" cy="95529" r="200" fill="red" /> <circle cx="63837" cy="96326" r="200" fill="red" /> <circle cx="62806" cy="96326" r="200" fill="red" /> <circle cx="62806" cy="96712" r="200" fill="red" /> <circle cx="61648" cy="96712" r="200" fill="red" /> <circle cx="61648" cy="97174" r="200" fill="red" /> <circle cx="60501" cy="97174" r="200" fill="red" /> <circle cx="60501" cy="97332" r="200" fill="red" /> <circle cx="59285" cy="97332" r="200" fill="red" /> <circle cx="59285" cy="97744" r="200" fill="red" /> <circle cx="58115" cy="97744" r="200" fill="red" /> <circle cx="58115" cy="97763" r="200" fill="red" /> <circle cx="56878" cy="97763" r="200" fill="red" /> <circle cx="56878" cy="97313" r="200" fill="red" /> <circle cx="55594" cy="97313" r="200" fill="red" /> <circle cx="55594" cy="98176" r="200" fill="red" /> <circle cx="54462" cy="98176" r="200" fill="red" /> <circle cx="54462" cy="97840" r="200" fill="red" /> <circle cx="53211" cy="97840" r="200" fill="red" /> <circle cx="53211" cy="97495" r="200" fill="red" /> <circle cx="51981" cy="97495" r="200" fill="red" /> <circle cx="51981" cy="98113" r="200" fill="red" /> <circle cx="50787" cy="98113" r="200" fill="red" /> <circle cx="50787" cy="98455" r="200" fill="red" /> <circle cx="49565" cy="98455" r="200" fill="red" /> <circle cx="49565" cy="98373" r="200" fill="red" /> <circle cx="48339" cy="98373" r="200" fill="red" /> <circle cx="48339" cy="97498" r="200" fill="red" /> <circle cx="47163" cy="97498" r="200" fill="red" /> <circle cx="47163" cy="97841" r="200" fill="red" /> <circle cx="45924" cy="97841" r="200" fill="red" /> <circle cx="45924" cy="97821" r="200" fill="red" /> <circle cx="44702" cy="97821" r="200" fill="red" /> <circle cx="44702" cy="97255" r="200" fill="red" /> <circle cx="43550" cy="97255" r="200" fill="red" /> <circle cx="43550" cy="97307" r="200" fill="red" /> <circle cx="42317" cy="97307" r="200" fill="red" /> <circle cx="42317" cy="96702" r="200" fill="red" /> <circle cx="41196" cy="96702" r="200" fill="red" /> <circle cx="41196" cy="96631" r="200" fill="red" /> <circle cx="39979" cy="96631" r="200" fill="red" /> <circle cx="39979" cy="96403" r="200" fill="red" /> <circle cx="38791" cy="96403" r="200" fill="red" /> <circle cx="38791" cy="95999" r="200" fill="red" /> <circle cx="37648" cy="95999" r="200" fill="red" /> <circle cx="37648" cy="95993" r="200" fill="red" /> <circle cx="36391" cy="95993" r="200" fill="red" /> <circle cx="36391" cy="95492" r="200" fill="red" /> <circle cx="35276" cy="95492" r="200" fill="red" /> <circle cx="35276" cy="95488" r="200" fill="red" /> <circle cx="33994" cy="95488" r="200" fill="red" /> <circle cx="33994" cy="94745" r="200" fill="red" /> <circle cx="32969" cy="94745" r="200" fill="red" /> <circle cx="32969" cy="94769" r="200" fill="red" /> <circle cx="31649" cy="94769" r="200" fill="red" /> <circle cx="31649" cy="93917" r="200" fill="red" /> <circle cx="30684" cy="93917" r="200" fill="red" /> <circle cx="30684" cy="93437" r="200" fill="red" /> <circle cx="29567" cy="93437" r="200" fill="red" /> <circle cx="29567" cy="92647" r="200" fill="red" /> <circle cx="28603" cy="92647" r="200" fill="red" /> <circle cx="28603" cy="92726" r="200" fill="red" /> <circle cx="27191" cy="92726" r="200" fill="red" /> <circle cx="27191" cy="92032" r="200" fill="red" /> <circle cx="26173" cy="92032" r="200" fill="red" /> <circle cx="26173" cy="91085" r="200" fill="red" /> <circle cx="25315" cy="91085" r="200" fill="red" /> <circle cx="25315" cy="90783" r="200" fill="red" /> <circle cx="24067" cy="90783" r="200" fill="red" /> <circle cx="24067" cy="90141" r="200" fill="red" /> <circle cx="23024" cy="90141" r="200" fill="red" /> <circle cx="23024" cy="88970" r="200" fill="red" /> <circle cx="22352" cy="88970" r="200" fill="red" /> <circle cx="22352" cy="88237" r="200" fill="red" /> <circle cx="21389" cy="88237" r="200" fill="red" /> <circle cx="21389" cy="87800" r="200" fill="red" /> <circle cx="20193" cy="87800" r="200" fill="red" /> <circle cx="20193" cy="86894" r="200" fill="red" /> <circle cx="19360" cy="86894" r="200" fill="red" /> <circle cx="19360" cy="85767" r="200" fill="red" /> <circle cx="18732" cy="85767" r="200" fill="red" /> <circle cx="18732" cy="85441" r="200" fill="red" /> <circle cx="17397" cy="85441" r="200" fill="red" /> <circle cx="17397" cy="84204" r="200" fill="red" /> <circle cx="16897" cy="84204" r="200" fill="red" /> <circle cx="16897" cy="83524" r="200" fill="red" /> <circle cx="15867" cy="83524" r="200" fill="red" /> <circle cx="15867" cy="83010" r="200" fill="red" /> <circle cx="14642" cy="83010" r="200" fill="red" /> <circle cx="14642" cy="81940" r="200" fill="red" /> <circle cx="14002" cy="81940" r="200" fill="red" /> <circle cx="14002" cy="80895" r="200" fill="red" /> <circle cx="13350" cy="80895" r="200" fill="red" /> <circle cx="13350" cy="80111" r="200" fill="red" /> <circle cx="12386" cy="80111" r="200" fill="red" /> <circle cx="12386" cy="78737" r="200" fill="red" /> <circle cx="12178" cy="78737" r="200" fill="red" /> <circle cx="12178" cy="77798" r="200" fill="red" /> <circle cx="11422" cy="77798" r="200" fill="red" /> <circle cx="11422" cy="76896" r="200" fill="red" /> <circle cx="10607" cy="76896" r="200" fill="red" /> <circle cx="10607" cy="76270" r="200" fill="red" /> <circle cx="9349" cy="76270" r="200" fill="red" /> <circle cx="9349" cy="75179" r="200" fill="red" /> <circle cx="8782" cy="75179" r="200" fill="red" /> <circle cx="8782" cy="74215" r="200" fill="red" /> <circle cx="8006" cy="74215" r="200" fill="red" /> <circle cx="8006" cy="72683" r="200" fill="red" /> <circle cx="8253" cy="72683" r="200" fill="red" /> <circle cx="8253" cy="71827" r="200" fill="red" /> <circle cx="7283" cy="71827" r="200" fill="red" /> <circle cx="7283" cy="70689" r="200" fill="red" /> <circle cx="6846" cy="70689" r="200" fill="red" /> <circle cx="6846" cy="69559" r="200" fill="red" /> <circle cx="6402" cy="69559" r="200" fill="red" /> <circle cx="6402" cy="68526" r="200" fill="red" /> <circle cx="5736" cy="68526" r="200" fill="red" /> <circle cx="5736" cy="67350" r="200" fill="red" /> <circle cx="5404" cy="67350" r="200" fill="red" /> <circle cx="5404" cy="66168" r="200" fill="red" /> <circle cx="5111" cy="66168" r="200" fill="red" /> <circle cx="5111" cy="65103" r="200" fill="red" /> <circle cx="4482" cy="65103" r="200" fill="red" /> <circle cx="4482" cy="64027" r="200" fill="red" /> <circle cx="3844" cy="64027" r="200" fill="red" /> <circle cx="3844" cy="62861" r="200" fill="red" /> <circle cx="3475" cy="62861" r="200" fill="red" /> <circle cx="3475" cy="61606" r="200" fill="red" /> <circle cx="3455" cy="61606" r="200" fill="red" /> <circle cx="3455" cy="60331" r="200" fill="red" /> <circle cx="3591" cy="60331" r="200" fill="red" /> <circle cx="3591" cy="59241" r="200" fill="red" /> <circle cx="2887" cy="59241" r="200" fill="red" /> <circle cx="2887" cy="57971" r="200" fill="red" /> <circle cx="3104" cy="57971" r="200" fill="red" /> <circle cx="3104" cy="56861" r="200" fill="red" /> <circle cx="2356" cy="56861" r="200" fill="red" /> <circle cx="2356" cy="55581" r="200" fill="red" /> <circle cx="2798" cy="55581" r="200" fill="red" /> <circle cx="2798" cy="54398" r="200" fill="red" /> <circle cx="2516" cy="54398" r="200" fill="red" /> <circle cx="2516" cy="53220" r="200" fill="red" /> <circle cx="2028" cy="53220" r="200" fill="red" /> <circle cx="2028" cy="52005" r="200" fill="red" /> <circle cx="1922" cy="52005" r="200" fill="red" /> <circle cx="1922" cy="50788" r="200" fill="red" /> <circle cx="1803" cy="50788" r="200" fill="red" /> <circle cx="1803" cy="50402" r="200" fill="red" /> <circle cx="94858" cy="50402" r="200" fill="red" /> <circle cx="94858" cy="48336" r="200" fill="red" /> <circle cx="1550" cy="48336" r="200" fill="red" /> <circle cx="1550" cy="47116" r="200" fill="red" /> <circle cx="1714" cy="47116" r="200" fill="red" /> <circle cx="1714" cy="45907" r="200" fill="red" /> <circle cx="1961" cy="45907" r="200" fill="red" /> <circle cx="1961" cy="44733" r="200" fill="red" /> <circle cx="2454" cy="44733" r="200" fill="red" /> <circle cx="2454" cy="43551" r="200" fill="red" /> <circle cx="2758" cy="43551" r="200" fill="red" /> <circle cx="2758" cy="42319" r="200" fill="red" /> <circle cx="2704" cy="42319" r="200" fill="red" /> <circle cx="2704" cy="41197" r="200" fill="red" /> <circle cx="3307" cy="41197" r="200" fill="red" /> <circle cx="3307" cy="39991" r="200" fill="red" /> <circle cx="3423" cy="39991" r="200" fill="red" /> <circle cx="3423" cy="38709" r="200" fill="red" /> <circle cx="3255" cy="38709" r="200" fill="red" /> <circle cx="3255" cy="37487" r="200" fill="red" /> <circle cx="3402" cy="37487" r="200" fill="red" /> <circle cx="3402" cy="36408" r="200" fill="red" /> <circle cx="4061" cy="36408" r="200" fill="red" /> <circle cx="4061" cy="35208" r="200" fill="red" /> <circle cx="4297" cy="35208" r="200" fill="red" /> <circle cx="4297" cy="33925" r="200" fill="red" /> <circle cx="4315" cy="33925" r="200" fill="red" /> <circle cx="4315" cy="32874" r="200" fill="red" /> <circle cx="5003" cy="32874" r="200" fill="red" /> <circle cx="5003" cy="31659" r="200" fill="red" /> <circle cx="5255" cy="31659" r="200" fill="red" /> <circle cx="5255" cy="30627" r="200" fill="red" /> <circle cx="5951" cy="30627" r="200" fill="red" /> <circle cx="5951" cy="29630" r="200" fill="red" /> <circle cx="6696" cy="29630" r="200" fill="red" /> <circle cx="6696" cy="28253" r="200" fill="red" /> <circle cx="6656" cy="28253" r="200" fill="red" /> <circle cx="6656" cy="27208" r="200" fill="red" /> <circle cx="7306" cy="27208" r="200" fill="red" /> <circle cx="7306" cy="26244" r="200" fill="red" /> <circle cx="8091" cy="26244" r="200" fill="red" /> <circle cx="8091" cy="25284" r="200" fill="red" /> <circle cx="8864" cy="25284" r="200" fill="red" /> <circle cx="8864" cy="24359" r="200" fill="red" /> <circle cx="9673" cy="24359" r="200" fill="red" /> <circle cx="9673" cy="22976" r="200" fill="red" /> <circle cx="9787" cy="22976" r="200" fill="red" /> <circle cx="9787" cy="22103" r="200" fill="red" /> <circle cx="10677" cy="22103" r="200" fill="red" /> <circle cx="10677" cy="20954" r="200" fill="red" /> <circle cx="11180" cy="20954" r="200" fill="red" /> <circle cx="11180" cy="20443" r="200" fill="red" /> <circle cx="12515" cy="20443" r="200" fill="red" /> <circle cx="12515" cy="19428" r="200" fill="red" /> <circle cx="13186" cy="19428" r="200" fill="red" /> <circle cx="13186" cy="18467" r="200" fill="red" /> <circle cx="13928" cy="18467" r="200" fill="red" /> <circle cx="13928" cy="17564" r="200" fill="red" /> <circle cx="14740" cy="17564" r="200" fill="red" /> <circle cx="14740" cy="16553" r="200" fill="red" /> <circle cx="15440" cy="16553" r="200" fill="red" /> <circle cx="15440" cy="15957" r="200" fill="red" /> <circle cx="16562" cy="15957" r="200" fill="red" /> <circle cx="16562" cy="14568" r="200" fill="red" /> <circle cx="16920" cy="14568" r="200" fill="red" /> <circle cx="16920" cy="13868" r="200" fill="red" /> <circle cx="17941" cy="13868" r="200" fill="red" /> <circle cx="17941" cy="12967" r="200" fill="red" /> <circle cx="18781" cy="12967" r="200" fill="red" /> <circle cx="18781" cy="12761" r="200" fill="red" /> <circle cx="20188" cy="12761" r="200" fill="red" /> <circle cx="20188" cy="11814" r="200" fill="red" /> <circle cx="20986" cy="11814" r="200" fill="red" /> <circle cx="20986" cy="11013" r="200" fill="red" /> <circle cx="21906" cy="11013" r="200" fill="red" /> <circle cx="21906" cy="10663" r="200" fill="red" /> <circle cx="23142" cy="10663" r="200" fill="red" /> <circle cx="23142" cy="9433" r="200" fill="red" /> <circle cx="23783" cy="9433" r="200" fill="red" /> <circle cx="23783" cy="9278" r="200" fill="red" /> <circle cx="25123" cy="9278" r="200" fill="red" /> <circle cx="25123" cy="8283" r="200" fill="red" /> <circle cx="25944" cy="8283" r="200" fill="red" /> <circle cx="25944" cy="8224" r="200" fill="red" /> <circle cx="27301" cy="8224" r="200" fill="red" /> <circle cx="27301" cy="7387" r="200" fill="red" /> <circle cx="28225" cy="7387" r="200" fill="red" /> <circle cx="28225" cy="6462" r="200" fill="red" /> <circle cx="29126" cy="6462" r="200" fill="red" /> <circle cx="29126" cy="6614" r="200" fill="red" /> <circle cx="30535" cy="6614" r="200" fill="red" /> <circle cx="30535" cy="5415" r="200" fill="red" /> <circle cx="31339" cy="5415" r="200" fill="red" /> <circle cx="31339" cy="5318" r="200" fill="red" /> <circle cx="32615" cy="5318" r="200" fill="red" /> <circle cx="32615" cy="5290" r="200" fill="red" /> <circle cx="33896" cy="5290" r="200" fill="red" /> <circle cx="33896" cy="4257" r="200" fill="red" /> <circle cx="34821" cy="4257" r="200" fill="red" /> <circle cx="34821" cy="3729" r="200" fill="red" /> <circle cx="35937" cy="3729" r="200" fill="red" /> <circle cx="35937" cy="3574" r="200" fill="red" /> <circle cx="37165" cy="3574" r="200" fill="red" /> <circle cx="37165" cy="3733" r="200" fill="red" /> <circle cx="38462" cy="3733" r="200" fill="red" /> <circle cx="38462" cy="3604" r="200" fill="red" /> <circle cx="39671" cy="3604" r="200" fill="red" /> <circle cx="39671" cy="2553" r="200" fill="red" /> <circle cx="40692" cy="2553" r="200" fill="red" /> <circle cx="40692" cy="2451" r="200" fill="red" /> <circle cx="41917" cy="2451" r="200" fill="red" /> <circle cx="41917" cy="2763" r="200" fill="red" /> <circle cx="43197" cy="2763" r="200" fill="red" /> <circle cx="43197" cy="2595" r="200" fill="red" /> <circle cx="44394" cy="2595" r="200" fill="red" /> <circle cx="44394" cy="1722" r="200" fill="red" /> <circle cx="45528" cy="1722" r="200" fill="red" /> <circle cx="45528" cy="2052" r="200" fill="red" /> <circle cx="46781" cy="2052" r="200" fill="red" /> <circle cx="46781" cy="2214" r="200" fill="red" /> <circle cx="48006" cy="2214" r="200" fill="red" /> <circle cx="48006" cy="2488" r="200" fill="red" /> <circle cx="49222" cy="2488" r="200" fill="red" /> <circle cx="49222" cy="2038" r="200" fill="red" /> <circle cx="50430" cy="2038" r="200" fill="red" /> <circle cx="50430" cy="1602" r="200" fill="red" /> <circle cx="51661" cy="1602" r="200" fill="red" /> <circle cx="51661" cy="1595" r="200" fill="red" /> <circle cx="52890" cy="1595" r="200" fill="red" /> <circle cx="52890" cy="1870" r="200" fill="red" /> <circle cx="54100" cy="1870" r="200" fill="red" /> <circle cx="54100" cy="1936" r="200" fill="red" /> <circle cx="55323" cy="1936" r="200" fill="red" /> <circle cx="55323" cy="2069" r="200" fill="red" /> <circle cx="56542" cy="2069" r="200" fill="red" /> <circle cx="56542" cy="2882" r="200" fill="red" /> <circle cx="57651" cy="2882" r="200" fill="red" /> <circle cx="57651" cy="3036" r="200" fill="red" /> <circle cx="58853" cy="3036" r="200" fill="red" /> <circle cx="58853" cy="2627" r="200" fill="red" /> <circle cx="60179" cy="2627" r="200" fill="red" /> <circle cx="60179" cy="3255" r="200" fill="red" /> <circle cx="61290" cy="3255" r="200" fill="red" /> <circle cx="61290" cy="3400" r="200" fill="red" /> <circle cx="62512" cy="3400" r="200" fill="red" /> <circle cx="62512" cy="3608" r="200" fill="red" /> <circle cx="63726" cy="3608" r="200" fill="red" /> <circle cx="63726" cy="4293" r="200" fill="red" /> <circle cx="64792" cy="4293" r="200" fill="red" /> <circle cx="64792" cy="4508" r="200" fill="red" /> <circle cx="66006" cy="4508" r="200" fill="red" /> <circle cx="66006" cy="4963" r="200" fill="red" /> <circle cx="67141" cy="4963" r="200" fill="red" /> <circle cx="67141" cy="5897" r="200" fill="red" /> <circle cx="68077" cy="5897" r="200" fill="red" /> <circle cx="68077" cy="6345" r="200" fill="red" /> <circle cx="69199" cy="6345" r="200" fill="red" /> <circle cx="69199" cy="6334" r="200" fill="red" /> <circle cx="70539" cy="6334" r="200" fill="red" /> <circle cx="70539" cy="7329" r="200" fill="red" /> <circle cx="71408" cy="7329" r="200" fill="red" /> <circle cx="71408" cy="7280" r="200" fill="red" /> <circle cx="72805" cy="7280" r="200" fill="red" /> <circle cx="72805" cy="7860" r="200" fill="red" /> <circle cx="73886" cy="7860" r="200" fill="red" /> <circle cx="73886" cy="8519" r="200" fill="red" /> <circle cx="74922" cy="8519" r="200" fill="red" /> <circle cx="74922" cy="9197" r="200" fill="red" /> <circle cx="75944" cy="9197" r="200" fill="red" /> <circle cx="75944" cy="9903" r="200" fill="red" /> <circle cx="76944" cy="9903" r="200" fill="red" /> <circle cx="76944" cy="10616" r="200" fill="red" /> <circle cx="77940" cy="10616" r="200" fill="red" /> <circle cx="77940" cy="11872" r="200" fill="red" /> <circle cx="78527" cy="11872" r="200" fill="red" /> <circle cx="78527" cy="12550" r="200" fill="red" /> <circle cx="79529" cy="12550" r="200" fill="red" /> <circle cx="79529" cy="13224" r="200" fill="red" /> <circle cx="80540" cy="13224" r="200" fill="red" /> <circle cx="80540" cy="14072" r="200" fill="red" /> <circle cx="81407" cy="14072" r="200" fill="red" /> <circle cx="81407" cy="14535" r="200" fill="red" /> <circle cx="82624" cy="14535" r="200" fill="red" /> <circle cx="82624" cy="15554" r="200" fill="red" /> <circle cx="83336" cy="15554" r="200" fill="red" /> <circle cx="83336" cy="16631" r="200" fill="red" /> <circle cx="83972" cy="16631" r="200" fill="red" /> <circle cx="83972" cy="17288" r="200" fill="red" /> <circle cx="85036" cy="17288" r="200" fill="red" /> <circle cx="85036" cy="17904" r="200" fill="red" /> <circle cx="86171" cy="17904" r="200" fill="red" /> <circle cx="86171" cy="19140" r="200" fill="red" /> <circle cx="86606" cy="19140" r="200" fill="red" /> <circle cx="86606" cy="20233" r="200" fill="red" /> <circle cx="87182" cy="20233" r="200" fill="red" /> <circle cx="87182" cy="20832" r="200" fill="red" /> <circle cx="88388" cy="20832" r="200" fill="red" /> <circle cx="88388" cy="21676" r="200" fill="red" /> <circle cx="89306" cy="21676" r="200" fill="red" /> <circle cx="89306" cy="23145" r="200" fill="red" /> <circle cx="89330" cy="23145" r="200" fill="red" /> <circle cx="89330" cy="24210" r="200" fill="red" /> <circle cx="89906" cy="24210" r="200" fill="red" /> <circle cx="89906" cy="25210" r="200" fill="red" /> <circle cx="90578" cy="25210" r="200" fill="red" /> <circle cx="90578" cy="25799" r="200" fill="red" /> <circle cx="91967" cy="25799" r="200" fill="red" /> <circle cx="91967" cy="27205" r="200" fill="red" /> <circle cx="91951" cy="27205" r="200" fill="red" /> <circle cx="91951" cy="28107" r="200" fill="red" /> <circle cx="92843" cy="28107" r="200" fill="red" /> <circle cx="92843" cy="29457" r="200" fill="red" /> <circle cx="92847" cy="29457" r="200" fill="red" /> <circle cx="92847" cy="30180" r="200" fill="red" /> <circle cx="94175" cy="30180" r="200" fill="red" /> <circle cx="94175" cy="31423" r="200" fill="red" /> <circle cx="94384" cy="31423" r="200" fill="red" /> <circle cx="94384" cy="32436" r="200" fill="red" /> <circle cx="95140" cy="32436" r="200" fill="red" /> <circle cx="95140" cy="33715" r="200" fill="red" /> <circle cx="95211" cy="33715" r="200" fill="red" /> <circle cx="95211" cy="34936" r="200" fill="red" /> <circle cx="95396" cy="34936" r="200" fill="red" /> <circle cx="95396" cy="36157" r="200" fill="red" /> <circle cx="95545" cy="36157" r="200" fill="red" /> <circle cx="95545" cy="37286" r="200" fill="red" /> <circle cx="95987" cy="37286" r="200" fill="red" /> <circle cx="95987" cy="38412" r="200" fill="red" /> <circle cx="96468" cy="38412" r="200" fill="red" /> <circle cx="96468" cy="39486" r="200" fill="red" /> <circle cx="97225" cy="39486" r="200" fill="red" /> <circle cx="97225" cy="40671" r="200" fill="red" /> <circle cx="97556" cy="40671" r="200" fill="red" /> <circle cx="97556" cy="41987" r="200" fill="red" /> <circle cx="97137" cy="41987" r="200" fill="red" /> <circle cx="97137" cy="43184" r="200" fill="red" /> <circle cx="97324" cy="43184" r="200" fill="red" /> <circle cx="97324" cy="44339" r="200" fill="red" /> <circle cx="97865" cy="44339" r="200" fill="red" /> <circle cx="97865" cy="45573" r="200" fill="red" /> <circle cx="97788" cy="45573" r="200" fill="red" /> <circle cx="97788" cy="46796" r="200" fill="red" /> <circle cx="97718" cy="46796" r="200" fill="red" /> <circle cx="97718" cy="47993" r="200" fill="red" /> <circle cx="98085" cy="47993" r="200" fill="red" /> <circle cx="98085" cy="49221" r="200" fill="red" /> <circle cx="97590" cy="49221" r="200" fill="red" /> <circle cx="97590" cy="50427" r="200" fill="red" /> </svg>
